
<svg xmlns="http://www.w3.org/2000/svg" width="32" height="32" viewBox="0 0 32 32">
  <!-- Background (transparent) -->
  <rect width="32" height="32" fill="transparent"/>
  
  <!-- Central neuron/brain structure -->
  <circle cx="16" cy="16" r="6" fill="#9b87f5"/>
  
  <!-- Connection lines -->
  <path d="M16,10 C13,6 8,8 4,5" stroke="#9b87f5" fill="none" stroke-width="1" stroke-linecap="round"/>
  <path d="M16,10 C19,6 24,8 28,5" stroke="#9b87f5" fill="none" stroke-width="1" stroke-linecap="round"/>
  <path d="M16,22 C13,26 8,24 4,27" stroke="#9b87f5" fill="none" stroke-width="1" stroke-linecap="round"/>
  <path d="M16,22 C19,26 24,24 28,27" stroke="#9b87f5" fill="none" stroke-width="1" stroke-linecap="round"/>
  
  <!-- Particles/nodes -->
  <circle cx="6" cy="6" r="1.5" fill="#9b87f5"/>
  <circle cx="26" cy="6" r="1.5" fill="#9b87f5"/>
  <circle cx="6" cy="26" r="1.5" fill="#9b87f5"/>
  <circle cx="26" cy="26" r="1.5" fill="#9b87f5"/>
  
  <!-- Smaller nodes -->
  <circle cx="10" cy="10" r="1" fill="#9b87f5"/>
  <circle cx="22" cy="10" r="1" fill="#9b87f5"/>
  <circle cx="10" cy="22" r="1" fill="#9b87f5"/>
  <circle cx="22" cy="22" r="1" fill="#9b87f5"/>
</svg>
