
<svg xmlns="http://www.w3.org/2000/svg" viewBox="0 0 200 200">
  <!-- Outer glow -->
  <filter id="glow" x="-50%" y="-50%" width="200%" height="200%">
    <feGaussianBlur stdDeviation="4" result="blur" />
    <feComposite in="SourceGraphic" in2="blur" operator="over" />
  </filter>

  <!-- Background -->
  <circle cx="100" cy="100" r="95" fill="#240938" stroke="#6b21a8" stroke-width="2" />
  
  <!-- Inner circle with gradient -->
  <circle cx="100" cy="100" r="85" fill="url(#purpleGradient)" filter="url(#glow)" />
  
  <!-- Globe lines -->
  <path d="M100,15 a85,85 0 0,1 0,170 a85,85 0 0,1 0,-170" stroke="#a78bfa" stroke-width="0.5" fill="none" opacity="0.6" />
  <path d="M100,15 a85,85 0 1,0 0,170 a85,85 0 1,0 0,-170" stroke="#a78bfa" stroke-width="0.5" fill="none" opacity="0.6" />
  <path d="M15,100 h170" stroke="#a78bfa" stroke-width="0.5" fill="none" opacity="0.6" />
  <path d="M30,50 h140" stroke="#a78bfa" stroke-width="0.5" fill="none" opacity="0.6" />
  <path d="M30,150 h140" stroke="#a78bfa" stroke-width="0.5" fill="none" opacity="0.6" />
  
  <!-- Connection points / Electrons -->
  <circle cx="100" cy="15" r="3" fill="#ddd6fe" opacity="0.8">
    <animate attributeName="opacity" values="0.4;1;0.4" dur="3s" repeatCount="indefinite" />
  </circle>
  <circle cx="15" cy="100" r="3" fill="#ddd6fe" opacity="0.8">
    <animate attributeName="opacity" values="0.4;1;0.4" dur="2.7s" repeatCount="indefinite" />
  </circle>
  <circle cx="100" cy="185" r="3" fill="#ddd6fe" opacity="0.8">
    <animate attributeName="opacity" values="0.4;1;0.4" dur="3.3s" repeatCount="indefinite" />
  </circle>
  <circle cx="185" cy="100" r="3" fill="#ddd6fe" opacity="0.8">
    <animate attributeName="opacity" values="0.4;1;0.4" dur="2.5s" repeatCount="indefinite" />
  </circle>
  
  <!-- Orbiting particles -->
  <circle cx="100" cy="100" r="2" fill="#ddd6fe">
    <animateTransform
      attributeName="transform"
      type="rotate"
      from="0 100 100"
      to="360 100 100"
      dur="10s"
      repeatCount="indefinite"
    />
  </circle>
  
  <circle cx="100" cy="100" r="2" fill="#ddd6fe">
    <animateTransform
      attributeName="transform"
      type="rotate"
      from="180 100 100"
      to="540 100 100"
      dur="15s"
      repeatCount="indefinite"
    />
  </circle>
  
  <!-- Definition for the purple gradient -->
  <defs>
    <linearGradient id="purpleGradient" x1="0%" y1="0%" x2="100%" y2="100%">
      <stop offset="0%" stop-color="#4c1d95" />
      <stop offset="100%" stop-color="#7c3aed" />
    </linearGradient>
  </defs>
</svg>
